<svg version="1" xmlns="http://www.w3.org/2000/svg" width="666.667" height="666.667" viewBox="0 0 500.000000 500.000000"><path d="M181.5 74c-48.2 8.3-89.5 41.8-107.6 87.3-3 7.5-6.6 19.6-7.3 24.8-.4 2.4-1 7.1-1.5 10.4-1.2 7.8-1.1 27.2 0 35.5 5.6 40.1 28.3 76.4 61.4 98.5 53.6 35.7 122.9 31.3 171.8-10.9l5.9-5.1 2 2.5c1.1 1.4 6.1 6.9 11.2 12.3 5 5.5 10.2 11.1 11.6 12.7 1.4 1.5 4.8 5.2 7.5 8.2 2.8 2.9 8.3 9.1 12.4 13.6s9 9.9 11 12c2 2.1 7.1 7.7 11.4 12.4 12.3 13.5 28.3 31.1 33.9 37.1 1.5 1.6 5.6 6.1 9.1 10.1 3.6 3.9 8.2 9 10.3 11.3 10.3 11 20 21.7 20.7 22.7.7 1.1 3.6-1.8 25-24.4l8.8-9.4-3-2.7c-1.7-1.4-6.1-5.3-9.8-8.6-3.8-3.3-12.6-11.1-19.8-17.3-7.1-6.2-16.1-14.1-20-17.5-3.8-3.4-8.8-7.7-11-9.6-2.2-1.9-4.2-3.6-4.5-3.9-.3-.3-3.9-3.4-8-7s-8.8-7.7-10.5-9.2c-4.3-3.8-7.3-6.4-12.9-11.2-2.6-2.2-6.1-5.3-7.7-6.7-1.5-1.4-5.4-4.8-8.5-7.5-3.1-2.7-6.2-5.4-6.8-5.9-.6-.6-4.3-3.7-8.1-7s-7.7-6.7-8.5-7.5c-.9-.8-4.2-3.8-7.4-6.5-3.2-2.8-7.3-6.4-9.3-8.1l-3.5-3.1 4.7-7.2c17.8-27.6 25.5-63.7 20.6-97.1-4.9-33.1-24.1-67-49.6-87.5-2.8-2.2-5.2-4.2-5.5-4.5-1.8-2-15.1-9.9-23.5-14-10.8-5.2-21.5-8.8-34-11.6-11.5-2.5-37.9-2.7-51-.4zm50.1 24.9c23 5.7 41.6 16.2 57.5 32.4 7.1 7.2 16.5 20.3 21.1 29.2 2.8 5.4 8.4 20.9 9.3 25.3 1.3 6.6 1.6 8.5 2.4 14.3 2 14.9-.8 38.4-6.4 53.3-21.5 57.2-81.9 88.7-140.4 73.2-39.5-10.5-71.1-41.4-82.5-80.8-3.3-11.4-4.1-17.8-4.1-32.8 0-14.2.6-19.3 3.5-30 6.6-24.2 19-43.7 38-59.5 16-13.3 32.6-21.2 53.5-25.5 12.4-2.5 36.5-2.1 48.1.9z"/><path d="M183.5 124.7c-4.9 1.4-9.1 2.6-9.3 2.8-.2.2 8.1 21.6 22 56.8.7 1.8 1.6 2.6 2.7 2.3.9-.3 2.8-.8 4.4-1.2 1.5-.3 2.7-1.1 2.7-1.8 0-1.2-7.7-38.9-8.5-41.6-.2-.8-.6-2.6-.9-4-.3-1.4-1-5.2-1.6-8.5-.6-3.3-1.5-6.3-1.8-6.6-.4-.3-4.7.5-9.7 1.8zM244.7 132.7c-.8 1.6-7.3 14.3-14.5 28.3l-13.1 25.5 3.4 2.3c1.9 1.2 3.8 2.2 4.3 2.2.4 0 6.4-7.5 13.2-16.8 6.9-9.2 12.7-16.9 13-17.2 2.9-2.7 12-16.4 11.3-16.9-1.2-1.1-11.5-7.7-14-9-2-1-2.4-.8-3.6 1.6zM132.4 166.2c-2.1 3.5-4.4 7.3-5.2 8.6-1.4 2.1-1.2 2.3 5.9 5.6 4.1 1.8 10.6 4.8 14.4 6.6 3.9 1.8 10.8 5.1 15.5 7.3 4.7 2.2 11.3 5.2 14.8 6.8l6.2 2.8 1.4-2.2c3.9-6.3 4.9-5-15.3-18.8-10.2-7-21.7-14.9-25.6-17.6-3.8-2.6-7.2-4.9-7.6-5.1-.4-.2-2.4 2.5-4.5 6zM212.2 202c-1.8.4-5.4 2.1-8 3.7-5.4 3.3-63.5 49.8-67 53.6-2.3 2.4-2.3 2.5-.7 8.1.9 3 2.2 5.9 2.8 6.3 1.8 1.2 28.1 12.1 36 14.9l6.7 2.5 4.3-2c2.3-1 7.8-4.6 12.2-8 4.4-3.3 8.7-6.1 9.6-6.1.8 0 4.4 1.1 8 2.5 23.8 9.4 39.7 5.6 52.1-12.3 3-4.4 6.5-11.6 7.5-15.5 2.2-9.3.4-21.8-4.5-29.7-3.8-6.2-10.1-9.1-30-14-17.5-4.3-23.7-5.2-29-4zm5.1 16.1c8.4 2.3 16.4 4.4 18 4.6 1.5.3 2.7.9 2.7 1.3s-2.5 2.9-5.5 5.5c-4.9 4.1-6 4.6-8.7 4.1-3.5-.7-31.8-9.5-33.2-10.4-1-.6 8.4-9.1 10.2-9.2.7 0 8.1 1.9 16.5 4.1zM157 271.5c8 3.2 15.7 6.2 17.3 6.9 1.5.6 3 2 3.3 3.1.3 1.1.8 2.8 1.1 3.9.4 1.4.2 1.6-.8 1-.8-.5-9.3-4.1-18.9-7.9-16.9-6.9-17.5-7.2-18.1-10.4-.5-2.2-.3-3.1.5-2.8.6.3 7.6 3.1 15.6 6.2z"/></svg>